<svg width="1440" height="776" viewBox="0 0 1440 776" fill="none" xmlns="http://www.w3.org/2000/svg">
<g clip-path="url(#clip0_503_3176)">
<rect width="1440" height="776" fill="white"/>
<mask id="mask0_503_3176" style="mask-type:alpha" maskUnits="userSpaceOnUse" x="0" y="-17" width="1441" height="799">
<rect x="0.000366211" y="-17" width="1440" height="799" fill="#001E27"/>
</mask>
<g mask="url(#mask0_503_3176)">
<rect x="-226" y="-17" width="1916" height="1008" fill="#001E27"/>
</g>
<g clip-path="url(#clip1_503_3176)">
<g clip-path="url(#clip2_503_3176)">
<path d="M489.382 942.701C473.485 907.633 485.217 879.573 527.495 845.237C569.774 810.9 612.191 815.256 644.072 834.594C675.944 853.936 769.008 918.155 735.217 963.153C701.426 1008.15 505.279 977.77 489.382 942.701Z" stroke="#00A392" stroke-width="2" stroke-miterlimit="10"/>
<path d="M560.189 709.209C560.189 709.209 573.659 769.901 603.205 770.067C632.751 770.232 653.163 759.506 634.705 733.55C616.246 707.593 573.297 689.28 560.189 709.209Z" stroke="#00A392" stroke-width="2" stroke-miterlimit="10"/>
<path d="M828.701 672.989C782.996 620.95 724.718 674.845 647.127 659.688C569.537 644.532 484.754 599.229 447.714 631.818C410.674 664.407 488.022 712.899 468.144 776.488C448.275 840.072 396.17 843.233 416.453 902.034C436.736 960.836 483.604 1095.33 571.444 1111.46C659.284 1127.58 856.884 1107.67 889.056 1073.94C921.229 1040.2 874.406 725.028 828.701 672.989Z" stroke="#00A392" stroke-width="3" stroke-miterlimit="10"/>
<path d="M438.359 1051.82C393.357 982.685 364.731 953.452 370.057 895.797C375.383 838.142 403.545 795.248 386.643 749.157C369.742 703.067 352.431 621.132 391.535 600.739C430.639 580.346 564.738 607.312 642.759 624.748C720.788 642.179 796.273 588.939 843.814 657.64C891.355 726.342 986.222 1056.51 910.822 1103.71C835.421 1150.91 561.682 1241.27 438.359 1051.82V1051.82Z" stroke="#00A392" stroke-width="2" stroke-miterlimit="10"/>
<path d="M368.435 1009.29C351.623 939.093 331.986 863.689 331.919 821.145C331.852 778.601 271.054 574.884 349.553 554.711C428.052 534.538 564.514 589.42 618.625 590.839C672.736 592.259 769.693 575.599 817.064 611.495C864.435 647.391 891.892 693.904 924.666 788.719C957.439 883.534 1008.28 1054.52 967.767 1089.16C927.26 1123.8 836.056 1168.12 742.726 1187.68C649.396 1207.23 581.699 1196.97 544.578 1228.25C507.461 1259.54 515.399 1165.46 483.502 1149.95C451.605 1134.44 377.663 1047.83 368.435 1009.29Z" stroke="#00A392" stroke-width="4" stroke-miterlimit="10"/>
<path d="M349.599 1018.63C332.607 966.947 301.18 798.381 285.906 743.49C270.622 688.602 256.866 564.94 311.359 536.063C365.862 507.182 455.644 502.81 523.732 528.676C591.819 554.543 620.251 563.383 685.988 573.904C751.724 584.426 802.167 569.985 856.348 631.413C910.53 692.84 1041.69 1018.65 996.561 1080.13C951.427 1141.61 772.051 1225.59 689.373 1248.68C606.695 1271.78 578.3 1301.67 530.083 1281.3C481.866 1260.92 476.696 1186.77 448.518 1159.81C420.34 1132.85 369.367 1078.75 349.599 1018.63V1018.63Z" stroke="#00A392" stroke-width="2" stroke-miterlimit="10"/>
<path d="M1015.44 1082.67C983.883 1140.21 831.941 1210.29 763.295 1247.98C694.649 1285.67 584.226 1330.24 538.698 1320.95C493.157 1311.65 374.36 1130.05 339.298 1044.97C304.236 959.892 230.102 636.837 255.605 559.99C281.112 483.152 359.532 445.22 473.808 488.146C588.083 531.071 682.489 545.963 718.105 550.02C753.722 554.078 808.69 547.481 876.506 640.055C944.322 732.629 1062.95 996.025 1015.44 1082.67V1082.67Z" stroke="#00A392" stroke-width="3" stroke-miterlimit="10"/>
<path d="M1203.65 323.822C1187.57 369.056 1193.83 446.016 1224.8 426.999C1255.77 407.982 1293.61 359.761 1269.84 325.41C1246.07 291.06 1218.81 281.16 1203.65 323.822Z" stroke="#00A392" stroke-width="2" stroke-miterlimit="10"/>
<path d="M1231.62 486.519C1201.49 510.496 1135.55 464.978 1139.02 388.135C1142.5 311.291 1133.9 174.238 1190.26 187.227C1246.61 200.216 1279.96 223.825 1297.56 291.445C1315.15 359.065 1291.84 438.608 1231.62 486.519Z" stroke="#00A392" stroke-width="2" stroke-miterlimit="10"/>
<path d="M1342.14 387.092C1337.36 498.349 1293.13 535.72 1241.2 544.264C1189.27 552.807 1122.33 553.347 1088.05 487.41C1053.77 421.473 1102.15 374.193 1036.86 371.728C971.571 369.263 921.208 306.557 983.675 286.394C1046.14 266.231 1144.43 154.89 1191.5 145.202C1238.56 135.515 1346.93 275.835 1342.14 387.092V387.092Z" stroke="#00A392" stroke-width="2" stroke-miterlimit="10"/>
<path d="M883.886 385.107C914.673 414.29 1007.58 389.273 1030.77 416.412C1053.97 443.546 1094.7 567.449 1128.32 584.39C1161.93 601.332 1254.97 567.263 1303.29 546.601C1351.61 525.94 1421.03 433.875 1376.51 332.192C1332 230.508 1281.04 70.9625 1206.6 94.9159C1132.16 118.869 1036.39 261.296 985.499 268.119C934.604 274.942 880.022 246.613 859.644 277.366C839.267 308.119 853.085 355.919 883.886 385.107Z" stroke="#00A392" stroke-width="4" stroke-miterlimit="10"/>
<path d="M863.859 414.167C897.29 445.849 997.059 404.892 1022.24 434.345C1047.43 463.797 1103.95 587.449 1140.44 605.84C1176.93 624.231 1272.49 597.165 1324.95 574.736C1377.41 552.306 1445.81 439.027 1397.49 328.65C1349.17 218.273 1299.31 46.2405 1218.51 72.247C1137.7 98.2443 1003.21 232.661 947.956 240.059C892.709 247.466 842.974 212.354 820.854 245.736C798.735 279.118 830.427 382.485 863.855 414.158L863.859 414.167Z" stroke="#00A392" stroke-miterlimit="10"/>
<path d="M191.796 -503.873C158.605 -415.113 223.846 -315.954 265.176 -237.776C306.506 -159.599 389.724 -74.1824 464.008 5.73585C538.292 85.6541 721.529 110.235 774.171 137.176C826.813 164.116 776.209 247.934 803.265 355.547C830.316 463.15 927.509 443.613 985.699 450.561C1055 459.303 1070.19 540.193 1115.84 600.778C1161.51 661.359 1274.83 613.598 1326.13 591.141C1377.43 568.683 1453.25 476.238 1440.2 365.454C1427.14 254.67 1318.05 53.7891 1256.41 49.1058C1194.77 44.4225 1116.91 110.72 1066.3 137.242C1015.68 163.765 926.767 195.048 930.192 145.518C933.616 95.9875 989.159 72.7752 976.081 -27.9437C962.998 -128.649 1060.94 -130.589 1082.16 -221.752C1103.39 -312.914 1083.69 -441.519 1061.15 -494.189C1038.6 -546.859 901.147 -688.866 707.535 -764.578C513.923 -840.289 224.987 -592.634 191.796 -503.873V-503.873Z" stroke="#00A392" stroke-width="2" stroke-miterlimit="10"/>
<path d="M160.76 -349.096C149.707 -240.936 336.588 -50.9318 430.916 39.8613C525.243 130.654 656.311 133.317 712.203 161.247C768.095 189.177 758.611 287.208 804.159 403.722C839.25 492.61 954.455 481.476 1003.93 477.285C1053.4 473.094 1082.37 585.403 1124.46 624.885C1166.56 664.367 1260.21 676.206 1314.57 659.503C1368.94 642.799 1541.76 538.291 1470.98 352.558C1400.18 166.82 1354.31 34.4649 1277.4 34.644C1200.49 34.8231 1101.49 65.095 1080.01 14.9917C1058.54 -35.1117 1053.81 -118.191 1078.14 -164.863C1102.46 -211.535 1144.1 -413.156 1069.98 -540.085C995.86 -667.013 784.064 -886.5 648.879 -861.162C513.694 -835.823 206.871 -687.304 161.518 -604.682C116.152 -522.065 171.813 -457.257 160.764 -349.087L160.76 -349.096Z" stroke="#00A392" stroke-width="4" stroke-miterlimit="10"/>
<path d="M135.289 -339.955C123.957 -229.064 321.652 -30.7921 418.356 62.2897C515.061 155.372 638.791 154.412 696.093 183.046C753.395 211.68 743.245 295.419 789.936 414.87C825.912 506.002 948.058 494.766 998.78 490.464C1049.5 486.162 1067.25 587.783 1110.41 628.264C1153.57 668.745 1272.34 706.209 1328.07 689.083C1383.8 671.956 1584.03 550.331 1511.46 359.912C1438.88 169.494 1373.27 6.07903 1294.42 6.26661C1215.57 6.4542 1129.16 58.711 1107.13 7.3435C1085.1 -44.024 1074.3 -139.898 1099.23 -187.743C1124.17 -235.589 1162.78 -427.684 1086.78 -557.811C1010.79 -687.938 783.886 -926.507 645.292 -900.528C506.698 -874.548 191.975 -703.904 145.467 -619.205C98.9603 -534.506 146.61 -450.842 135.289 -339.955V-339.955Z" stroke="#00A392" stroke-width="2" stroke-miterlimit="10"/>
<path d="M121.117 -338.663C109.746 -229.982 382.372 78.5883 470.853 143.559C559.334 208.529 653.748 174.839 694.323 224.211C734.898 273.584 760.699 386.734 795.805 456.032C830.912 525.329 987.96 500.659 1022.55 524.815C1057.14 548.971 1049.88 594.723 1109.1 645.213C1168.31 695.703 1228.63 698.837 1265.13 707.39C1301.62 715.944 1365.67 706.944 1451.91 638.111C1538.16 569.277 1572.69 449.911 1530.41 348.342C1488.13 246.772 1417.26 -25.8283 1312.5 -27.1065C1207.75 -28.3848 1113.46 -3.94024 1110.43 -64.9236C1107.4 -125.907 1175.45 -417.601 1115.82 -538.864C1056.18 -660.127 935.935 -808.89 867.957 -854.454C799.979 -900.018 751.376 -965.536 618.043 -915.071C484.709 -864.605 155.577 -781.162 97.3641 -621.115C39.151 -461.067 132.488 -447.345 121.117 -338.663V-338.663Z" stroke="#EA9956" stroke-width="2" stroke-miterlimit="10"/>
<path d="M550.889 1373.71C672.793 1362.92 911.077 1221.49 959.912 1185.92C1008.75 1150.35 1088.5 1088.15 1065.01 1026.97C1041.52 965.779 1073.98 942.772 1133.51 980.919C1193.05 1019.07 1351.68 941.283 1426.72 932.209C1501.75 923.138 1605.44 847.66 1618.31 779.804C1631.18 711.948 1534.97 666.734 1517.02 620.796C1499.07 574.858 1565.82 597.557 1598.14 446.957C1630.46 296.356 1397.8 -5.69481 1361.14 -37.6898C1324.48 -69.6847 1183.04 -57.5086 1148.55 -109.996C1114.07 -162.483 1166.31 -363.047 1152.99 -503.83C1139.66 -644.612 914.677 -874.906 815.08 -951.778C715.483 -1028.65 484.99 -913.862 447.372 -905.036C409.755 -896.209 93.5418 -745.775 39.1966 -629.557C-15.1487 -513.339 86.3499 -385.666 84.9304 -331.555C83.5109 -277.444 123.98 -168.193 214.4 -83.5062C304.825 1.19018 400.489 179.82 491.537 203.276C582.585 226.732 633.689 214.949 658.794 267.983C683.899 321.017 784.251 477.366 815.15 499.896C846.048 522.426 953.014 534.591 996.294 560.368C1039.57 586.146 1099.34 674.046 1137.74 698.172C1176.14 722.299 1262.38 769.691 1340.25 735.604C1418.11 701.517 1536.86 673.548 1571.9 778.527C1606.94 883.506 1342.69 898.278 1214.2 923.959C1085.72 949.64 1040.52 861.356 1000.69 823.149C960.87 784.943 911.603 643.848 854.049 588.754C796.494 533.661 708.337 526.459 649.815 514.963C591.293 503.467 426.248 403.242 357.826 419.003C289.404 434.765 213.661 488.663 226.558 607.921C239.456 727.178 277.712 902.12 303.506 981.465C329.301 1060.81 428.985 1384.5 550.889 1373.71V1373.71Z" stroke="#00A392" stroke-miterlimit="10"/>
<path d="M184.362 591.177C161.247 475.934 217.264 427.047 269.016 378.193C320.768 329.339 455.037 304.401 511.283 304.34C567.529 304.279 614.302 421.347 652.481 459.761C690.66 498.174 832.801 552.71 863.789 573.575C894.776 594.439 983.759 754.117 1025.08 812.474C1066.4 870.832 1107.13 916.249 1312.76 891.968C1518.4 867.687 1563.84 815.045 1551.28 787.554C1538.72 760.063 1468.53 704.029 1396.93 738.91C1325.32 773.796 1270.44 791.816 1216.1 777.399C1161.75 762.981 1069.55 709.464 1041.71 658.337C1013.87 607.21 968.802 569.085 924.996 558.788C881.19 548.491 815.503 539.007 787.389 508.773C759.276 478.54 630.548 348.738 587.65 303.112C544.752 257.485 431.246 283.246 339.421 211.509C247.605 139.768 59.6116 -160.003 39.3169 -271.197C19.0222 -382.391 -130.002 -573.194 6.48101 -674.117C142.951 -775.045 375.135 -931.029 540.481 -975.695C705.827 -1020.36 780.054 -1059.39 902.742 -929.175C1025.43 -798.956 1180.76 -596.234 1182.95 -533.878C1185.14 -471.523 1111.02 -208.425 1185.41 -165.44C1259.8 -122.455 1388.03 -40.3021 1421.38 -1.62932C1454.72 37.0566 1650.4 300.563 1626.62 415.297C1602.85 530.031 1549.49 575.221 1592.73 631.612C1635.98 688.003 1682.18 770.993 1622.89 846.321C1563.6 921.64 1273.43 1026.83 1198.71 1043.17C1123.99 1059.5 1098 1112.36 1071.15 1138.31C1044.3 1164.25 735.372 1356.25 637.522 1387.08C539.672 1417.91 437.443 1371.46 399.322 1291.83C275.238 997.137 184.358 591.168 184.358 591.168L184.362 591.177Z" stroke="#00A392" stroke-width="2" stroke-miterlimit="10"/>
<path d="M1476.3 772.106C1489.31 789.338 1483.75 826.101 1439.61 836.439C1395.47 846.79 1188.48 892.644 1122.8 837.346C1057.11 782.047 919.506 645.17 926.533 621.124C933.556 597.068 984.236 617.357 1005.92 648.901C1027.59 680.445 1093.24 757.19 1158 783.03C1222.76 808.866 1294.19 835.52 1369.27 800.982C1444.35 766.444 1463.3 754.873 1476.3 772.106V772.106Z" stroke="#00A392" stroke-width="3" stroke-miterlimit="10"/>
<path d="M604.015 54.4262C684.705 85.9647 772.888 95.3929 815.597 65.7801C858.306 36.1673 892.8 -32.1605 922.289 -75.7658C951.777 -119.371 1017.9 -177.791 1018.12 -217.186C1018.34 -256.58 1025.22 -477.665 979.575 -518.389C933.929 -559.123 753.725 -791.85 636.18 -757.062C518.644 -722.278 193.216 -557.985 215.799 -456.525C238.382 -355.066 293.958 -198.186 368.006 -148.73C442.054 -99.2742 523.32 22.9008 604.015 54.4262V54.4262Z" stroke="#00A392" stroke-width="2" stroke-miterlimit="10"/>
<path d="M753.572 8.87783C772.4 4.95822 806.93 -31.0951 856.136 -89.6307C905.342 -148.166 938.484 -157.217 960.521 -194.154C982.558 -231.092 1025.87 -366.014 969.449 -463.993C913.028 -561.981 791.825 -757.059 675.856 -713.758C559.887 -670.458 246.973 -619.713 259.145 -472.215C271.317 -324.716 363.415 -216.573 409.348 -169C455.28 -121.427 620.51 36.5731 753.576 8.887L753.572 8.87783Z" stroke="#00A392" stroke-width="4" stroke-miterlimit="10"/>
<path d="M955.051 -248.917C944.037 -204.404 900.07 -167.691 838.013 -109.959C775.956 -52.2275 677.815 -12.5395 641.599 -23.976C605.383 -35.4125 439.131 -155.85 419.367 -198.504C399.602 -241.159 234.483 -418.856 300.66 -487.125C366.837 -555.393 490.672 -639.077 553.711 -654.666C616.751 -670.255 776.677 -671.493 820.605 -628.5C864.533 -585.508 976.372 -438.728 967.673 -366.858C958.962 -294.993 966.074 -293.434 955.06 -248.921L955.051 -248.917Z" stroke="#00A392" stroke-miterlimit="10"/>
<path d="M940.785 -368.907C940.785 -368.907 900.879 -223.172 871.812 -191.071C842.745 -158.97 764.968 -84.7833 709.044 -71.6435C653.119 -58.5037 567.175 -64.6652 532.286 -145.935C497.396 -227.205 479.612 -246.71 465.968 -365.728C452.333 -484.749 393.394 -403.112 427.976 -323.443C462.557 -243.774 301.857 -378.486 345.455 -447.787C389.053 -517.087 461.93 -585.014 539.741 -609.252C617.552 -633.49 738.362 -666.727 800.682 -571.747C863.002 -476.767 941.001 -425.766 940.785 -368.907V-368.907Z" stroke="#00A392" stroke-width="2" stroke-miterlimit="10"/>
<path d="M-258.243 -271.385C-62.8257 -318.725 55.6628 -109.151 109.046 -32.0915C162.429 44.9684 293.301 191.811 267.033 258.982C240.766 326.154 169.493 397.745 160.816 515.072C152.139 632.399 262.22 929.271 275.419 996.577C288.627 1063.88 347.92 1191.84 286.787 1284.1C225.654 1376.36 -136.492 1479.22 -195.654 1164.53C-254.816 849.848 -147.679 734.131 -179.088 643.107C-210.506 552.087 -535.835 389.942 -548.695 238.378C-561.555 86.8144 -453.66 -224.045 -258.243 -271.385V-271.385Z" stroke="#00A392" stroke-width="2" stroke-miterlimit="10"/>
<path d="M59.3274 774.583C77.3144 825.995 121.323 977.197 81.7084 1016.37C42.0933 1055.55 -46.9461 1054.13 -85.1495 1004.27C-123.353 954.404 -111.458 861.234 -61.4923 786.505C-11.5268 711.775 44.2717 731.538 59.3274 774.583Z" stroke="#00A392" stroke-width="2" stroke-miterlimit="10"/>
<path d="M116.02 817.958C116.362 811.259 108.291 690.183 42.9691 688.29C-22.3527 686.397 -227.477 836.243 -91.7745 1081.4C43.9286 1326.56 135.795 1085.44 142.075 1021.03C148.346 956.634 116.02 817.958 116.02 817.958Z" stroke="#00A392" stroke-width="2" stroke-miterlimit="10"/>
<path d="M86.4942 650.766C107.587 690.721 139.08 751.689 154.615 829.194C170.151 906.699 251.466 1078.51 167.018 1161.87C82.5701 1245.23 0.605397 1283.3 -56.0173 1259.51C-112.64 1235.72 -138.635 1135.74 -148.987 1035.49C-159.34 935.237 -173.172 765.716 -80.2341 706.288C12.7043 646.86 67.3041 614.41 86.4942 650.766Z" stroke="#00A392" stroke-width="2" stroke-miterlimit="10"/>
<path d="M115.886 621.154C115.886 621.154 196.836 812.13 217.165 901.433C237.503 990.732 287.852 1131.33 251.743 1191.91C215.634 1252.48 164.966 1332.39 54.6886 1330.51C-55.5886 1328.64 -129.9 1317.13 -155.038 1214.25C-180.177 1111.37 -189.681 755.062 -113.967 674.115C-38.254 593.169 46.3613 485.303 115.886 621.154V621.154Z" stroke="#00A392" stroke-width="4" stroke-miterlimit="10"/>
<path d="M-0.47634 357.837C-57.9715 432.522 -157.538 433.645 -194.546 354.744C-231.553 275.842 -273.951 159.041 -156.231 133.706C-38.51 108.371 46.6979 296.556 -0.47634 357.837Z" stroke="#00A392" stroke-width="2" stroke-miterlimit="10"/>
<path d="M58.5374 330.06C84.8637 270.504 59.5404 205.176 -2.94467 139.742C-65.4297 74.3077 -212.985 51.8127 -250.387 127.013C-287.798 202.218 -305.396 438.988 -152.784 450.864C-0.172447 462.74 58.5466 330.056 58.5466 330.056L58.5374 330.06Z" stroke="#00A392" stroke-width="2" stroke-miterlimit="10"/>
<path d="M95.8735 156.435C48.2691 67.4897 -31.6029 -119.079 -148.647 -65.3414C-265.69 -11.604 -355.746 -5.66104 -364.086 102.611C-372.427 210.883 -354.673 394.025 -280.382 427.601C-206.092 461.177 -132.542 502.664 -57.5217 463C17.4988 423.336 184.815 322.626 95.8695 156.425L95.8735 156.435Z" stroke="#00A392" stroke-width="2" stroke-miterlimit="10"/>
<path d="M-101.494 -140.237C-202.792 -164.664 -358.191 -137.026 -393.475 -64.8158C-428.758 7.39441 -502.046 99.5165 -454.573 214.096C-407.1 328.675 -358.291 414.036 -293.698 452.468C-229.1 490.909 -161.016 532.104 -78.4567 494.849C4.10257 457.594 100.058 402.488 131.597 354.841C163.137 307.194 174.604 226.186 142.893 168.687C111.183 111.187 -0.204855 -115.805 -101.503 -140.233L-101.494 -140.237Z" stroke="#00A392" stroke-width="4" stroke-miterlimit="10"/>
<path d="M75.4818 489.682C119.143 441.073 234.246 299.84 191.028 194.981C147.81 90.1214 7.87385 -170.714 -51.8331 -193.12C-111.54 -215.527 -248.51 -234.163 -328.031 -176.428C-407.552 -118.692 -546.767 64.5129 -500.355 207.938C-453.942 351.364 -299.187 530.324 -187.47 543.641C-75.7529 556.957 31.8113 538.295 75.4726 489.686L75.4818 489.682Z" stroke="#00A392" stroke-width="2" stroke-miterlimit="10"/>
</g>
</g>
</g>
<defs>
<clipPath id="clip0_503_3176">
<rect width="1440" height="776" fill="white"/>
</clipPath>
<clipPath id="clip1_503_3176">
<rect width="1364" height="1485" fill="white" transform="translate(1463 -435) rotate(90)"/>
</clipPath>
<clipPath id="clip2_503_3176">
<rect width="2213.84" height="2009.2" fill="white" transform="translate(964.564 -1170) rotate(66.3579)"/>
</clipPath>
</defs>
</svg>
